{"title":"Falling.Skies.S03E10.1080p.WEB-DL.DD5.1.H.264-Abjex","uid":8781842,"size":1748974334,"categoryP":"video","categoryS":"hd___tv_shows","magnet":"?xt=urn:btih:e7f880f1090a2885ccfa0f4ebac83dedba433cae&amp;dn=Falling.Skies.S03E10.1080p.WEB-DL.DD5.1.H.264-Abjex&amp;tr=udp%3A%2F%2Ftracker.openbittorrent.com%3A80&amp;tr=udp%3A%2F%2Fopen.demonii.com%3A1337&amp;tr=udp%3A%2F%2Ftracker.coppersurfer.tk%3A6969&amp;tr=udp%3A%2F%2Fexodus.desync.com%3A6969","seeders":1,"leechers":3,"uploader":"Thhaque","files":1,"time":1375730444,"description":"Falling Skies\n\nGenre: Action, Mystery, Military/War, Sci-Fi\nYear: 2012\nCountry: USA\nRuntime: 42 min\nProducer: Steven Spielberg\nCast: Noah Wyle, Moon Bloodgood, Connor Jessup, Colin Cunningham, Sarah Carter\n\nGeneral\nUnique ID                                : 185570340722449389331633151638547441807 (0x8B9B8C2F6E85BDF7B9006A82F0FFA88F)\nComplete name                            : Falling.Skies.S03E10.1080p.WEB-DL.DD5.1.H.264-Abjex.mkv\nFormat                                   : Matroska\nFormat version                           : Version 4 / Version 2\nFile size                                : 1.63 GiB\nDuration                                 : 42mn 9s\nOverall bit rate                         : 5 532 Kbps\nMovie name                               : &lt;a class=&quot;__cf_email__&quot; href=&quot;/cdn-cgi/l/email-protection&quot; data-cfemail=&quot;3d7b5c515154535a136e5654584e136e0d0e780c0d137f4f5c475451130c0d050d4d136a787f10797113797908130c1375130f0b09107c5f5758457d7979716b5c51&quot;&gt;[email&amp;#160;protected]&lt;/a&gt;&lt;script cf-hash='f9e31' type=&quot;text/javascript&quot;&gt;\n/* &lt;![CDATA[ */!function(){try{var t=&quot;currentScript&quot;in document?document.currentScript:function(){for(var t=document.getElementsByTagName(&quot;script&quot;),e=t.length;e--;)if(t[e].getAttribute(&quot;cf-hash&quot;))return t[e]}();if(t&amp;&amp;t.previousSibling){var e,r,n,i,c=t.previousSibling,a=c.getAttribute(&quot;data-cfemail&quot;);if(a){for(e=&quot;&quot;,r=parseInt(a.substr(0,2),16),n=2;a.length-n;n+=2)i=parseInt(a.substr(n,2),16)^r,e+=String.fromCharCode(i);e=document.createTextNode(e),c.parentNode.replaceChild(e,c)}}}catch(u){}}();/* ]]&gt; */&lt;/script&gt;ley.eu\nEncoded date                             : UTC 2013-08-05 08:08:48\nWriting application                      : mkvmerge v6.3.0 ('You can't stop me!') built on Jun 28 2013 20:09:41\nWriting library                          : libebml v1.3.0 + libmatroska v1.4.0\n\nVideo\nID                                       : 1\nFormat                                   : AVC\nFormat/Info                              : Advanced Video Codec\nFormat profile                           : &lt;a class=&quot;__cf_email__&quot; href=&quot;/cdn-cgi/l/email-protection&quot; data-cfemail=&quot;327a5b555a727e061c02&quot;&gt;[email&amp;#160;protected]&lt;/a&gt;&lt;script cf-hash='f9e31' type=&quot;text/javascript&quot;&gt;\n/* &lt;![CDATA[ */!function(){try{var t=&quot;currentScript&quot;in document?document.currentScript:function(){for(var t=document.getElementsByTagName(&quot;script&quot;),e=t.length;e--;)if(t[e].getAttribute(&quot;cf-hash&quot;))return t[e]}();if(t&amp;&amp;t.previousSibling){var e,r,n,i,c=t.previousSibling,a=c.getAttribute(&quot;data-cfemail&quot;);if(a){for(e=&quot;&quot;,r=parseInt(a.substr(0,2),16),n=2;a.length-n;n+=2)i=parseInt(a.substr(n,2),16)^r,e+=String.fromCharCode(i);e=document.createTextNode(e),c.parentNode.replaceChild(e,c)}}}catch(u){}}();/* ]]&gt; */&lt;/script&gt;\nFormat settings, CABAC                   : Yes\nFormat settings, ReFrames                : 4 frames\nCodec ID                                 : V_MPEG4/ISO/AVC\nDuration                                 : 42mn 9s\nBit rate                                 : 5 038 Kbps\nWidth                                    : 1 920 pixels\nHeight                                   : 1 080 pixels\nDisplay aspect ratio                     : 16:9\nFrame rate mode                          : Constant\nFrame rate                               : 23.976 fps\nColor space                              : YUV\nChroma subsampling                       : 4:2:0\nBit depth                                : 8 bits\nScan type                                : Progressive\nBits/(Pixel*Frame)                       : 0.101\nStream size                              : 1.48 GiB (91%)\nLanguage                                 : English\nDefault                                  : Yes\nForced                                   : No\nColor primaries                          : BT.709\nTransfer characteristics                 : BT.709\nMatrix coefficients                      : BT.709\n\nAudio\nID                                       : 2\nFormat                                   : AC-3\nFormat/Info                              : Audio Coding 3\nMode extension                           : CM (complete main)\nFormat settings, Endianness              : Big\nCodec ID                                 : A_AC3\nDuration                                 : 42mn 9s\nBit rate mode                            : Constant\nBit rate                                 : 384 Kbps\nChannel(s)                               : 6 channels\nChannel positions                        : Front: L C R, Side: L R, LFE\nSampling rate                            : 48.0 KHz\nBit depth                                : 16 bits\nCompression mode                         : Lossy\nStream size                              : 116 MiB (7%)\nLanguage                                 : English\nDefault                                  : Yes\nForced                                   : No\n\nText\nID                                       : 3\nFormat                                   : UTF-8\nCodec ID                                 : S_TEXT/UTF8\nCodec ID/Info                            : UTF-8 Plain Text\nLanguage                                 : English\nDefault                                  : Yes\nForced                                   : No\n\n.: Plot :.\nFrom executive producer Steven Spielberg, Falling Skies stars Noah Wyle as a former college professor who becomes the leader of a group of soldiers and civilians struggling against an occupying alien force.\n\nMoon Bloodgood co-stars as Anne Glass, a therapist who works with the surviving children to help them cope with the traumatic situation. The series also stars Drew Roy as Hal and Maxim Knight as Matt, Tom's two sons; and Seychelle Gabriel as Lourdes, an orphaned teenager who helps run the group's commissary.","torrent":{"xt":"urn:btih:e7f880f1090a2885ccfa0f4ebac83dedba433cae","amp;dn":"Falling.Skies.S03E10.1080p.WEB-DL.DD5.1.H.264-Abjex","amp;tr":["udp%3A%2F%2Ftracker.openbittorrent.com%3A80","udp%3A%2F%2Fopen.demonii.com%3A1337","udp%3A%2F%2Ftracker.coppersurfer.tk%3A6969","udp%3A%2F%2Fexodus.desync.com%3A6969"],"infoHash":"e7f880f1090a2885ccfa0f4ebac83dedba433cae","infoHashBuffer":{"type":"Buffer","data":[231,248,128,241,9,10,40,133,204,250,15,78,186,200,61,237,186,67,60,174]},"announce":[],"urlList":[]}}